<?xml version="1.0" standalone="no"?>
<!DOCTYPE svg PUBLIC "-//W3C//DTD SVG 20010904//EN"
 "http://www.w3.org/TR/2001/REC-SVG-20010904/DTD/svg10.dtd">
<svg version="1.0" xmlns="http://www.w3.org/2000/svg"
 width="1002.000000pt" height="950.000000pt" viewBox="0 0 1002.000000 950.000000"
 preserveAspectRatio="xMidYMid meet">

<g transform="translate(0.000000,950.000000) scale(0.100000,-0.100000)"
fill="#000000" stroke="none">
<path d="M0 4750 l0 -4750 5010 0 5010 0 0 4750 0 4750 -5010 0 -5010 0 0
-4750z m7957 4284 c91 -73 252 -235 280 -282 22 -38 25 -50 19 -99 -11 -94
-37 -183 -56 -193 -10 -5 -54 -21 -97 -35 -43 -13 -87 -31 -98 -39 -17 -12
-21 -12 -32 3 -7 9 -13 19 -13 22 0 10 121 67 171 80 45 12 47 14 53 57 7 52
7 113 -1 94 -2 -6 -9 -9 -15 -6 -6 4 -14 1 -18 -5 -5 -10 -10 -9 -21 1 -14 15
-20 18 -52 26 -14 3 -15 7 -6 13 17 10 -3 39 -82 118 -66 65 -113 96 -129 86
-15 -9 -13 -198 2 -213 7 -7 30 -13 53 -13 38 -1 38 -2 -13 -9 -53 -8 -92 -32
-92 -57 0 -7 -2 -13 -5 -13 -3 0 -56 45 -119 101 l-113 101 44 107 c25 58 48
115 53 126 5 14 30 28 76 42 134 43 142 42 211 -13z m-226 -524 c175 -171 183
-179 152 -180 -26 0 -31 4 -28 18 2 11 -6 25 -18 33 -11 8 -44 33 -73 56 l-52
42 -66 -71 c-36 -39 -66 -75 -66 -79 0 -8 -30 -14 -30 -6 0 1 -16 76 -34 167
l-34 165 21 17 c12 10 27 18 33 18 7 0 94 -81 195 -180z m-287 -64 c18 -86 31
-158 28 -161 -3 -3 -72 -5 -153 -5 l-147 0 -7 38 c-3 20 -9 46 -11 58 -4 16
16 37 97 105 56 46 114 94 128 106 14 12 28 20 29 18 2 -2 19 -74 36 -159z
m-354 -134 c0 -8 65 -328 75 -369 l5 -23 -148 0 -149 0 -20 61 -20 61 71 83
c39 45 93 108 119 139 44 52 67 68 67 48z m502 -108 c-5 -29 -7 -28 -16 8 -5
21 -3 26 7 22 9 -3 12 -14 9 -30z m152 -111 c-57 -80 -104 -150 -104 -155 0
-4 -4 -8 -10 -8 -5 0 -10 17 -10 38 0 31 13 56 80 147 44 60 80 113 80 117 0
4 15 8 34 8 l35 0 -105 -147z m-249 81 c3 -20 4 -39 1 -42 -3 -3 -6 4 -6 16 0
17 -6 22 -24 22 -19 0 -48 -25 -115 -101 -50 -55 -91 -105 -91 -110 0 -5 -4
-9 -8 -9 -5 0 -19 51 -32 113 -13 61 -25 117 -27 124 -4 9 30 13 134 16 76 1
143 4 149 5 7 1 15 -14 19 -34z m-669 -437 c20 -92 35 -170 33 -172 -5 -4
-369 -11 -369 -7 0 2 44 65 98 140 54 75 118 166 142 201 l45 64 7 -29 c4 -16
24 -105 44 -197z m718 155 l17 -53 -117 -130 c-85 -95 -119 -127 -125 -117
-16 25 -9 37 71 123 122 132 133 148 132 203 0 26 1 43 3 37 2 -5 10 -34 19
-63z m-360 -74 c3 -13 16 -84 30 -158 13 -74 26 -140 28 -146 1 -6 -51 -61
-117 -123 -109 -102 -120 -109 -128 -89 -6 18 8 36 105 128 l112 107 -12 54
c-7 30 -9 64 -6 77 4 13 2 22 -5 22 -6 0 -10 8 -9 18 2 9 -1 36 -6 60 -12 67
-38 58 -128 -43 -42 -47 -83 -100 -91 -117 -15 -32 -16 -32 -21 -8 -3 14 -16
73 -29 133 l-24 107 148 0 c146 0 149 0 153 -22z m-1962 -27 c182 -33 387 -96
550 -169 l67 -31 -24 -49 c-46 -95 -51 -86 95 -197 71 -54 130 -103 130 -107
0 -4 -6 -11 -13 -15 -7 -4 -56 -58 -109 -119 -132 -151 -120 -143 -173 -105
-40 28 -205 111 -222 111 -3 0 30 -37 73 -83 65 -68 93 -109 157 -227 119
-223 339 -664 383 -770 25 -61 40 -87 42 -74 2 12 24 47 50 78 78 94 437 494
444 495 9 1 46 -159 74 -324 22 -134 27 -147 99 -293 41 -84 75 -164 75 -177
0 -24 -35 -119 -91 -246 -63 -146 -62 -169 22 -399 l49 -136 -39 -105 c-21
-57 -51 -130 -66 -161 -25 -56 -28 -58 -64 -58 -49 0 -98 -17 -138 -47 -37
-27 -37 -27 -22 15 12 35 19 39 114 61 l70 17 16 59 c9 33 19 75 22 94 l7 34
-20 -26 c-13 -16 -52 -38 -105 -58 -99 -37 -132 -68 -165 -156 -41 -109 -37
-220 15 -379 19 -59 22 -79 14 -109 l-10 -36 -18 22 c-21 27 -33 21 -67 -32
l-25 -40 -30 25 c-17 15 -36 26 -43 26 -14 0 -88 -76 -100 -101 -5 -12 -7 -12
-13 1 -12 27 -60 69 -87 76 -38 9 -70 -8 -105 -56 l-29 -40 -27 38 c-38 51
-54 62 -90 62 -22 0 -40 -10 -65 -35 l-33 -34 -27 42 c-15 23 -41 55 -58 70
-38 36 -59 31 -107 -26 -32 -37 -37 -40 -46 -24 -41 72 -94 89 -148 49 l-28
-21 -12 27 c-10 24 -10 25 2 10 20 -25 30 -22 16 3 -8 15 -8 19 0 15 6 -4 11
-1 11 7 0 8 11 26 25 41 15 16 25 38 24 54 -1 29 -16 83 -19 67 0 -5 -10 17
-20 50 -15 45 -16 62 -7 73 6 8 12 21 13 30 2 8 8 18 14 22 7 4 9 16 5 29 -12
39 19 23 52 -27 58 -87 75 -131 80 -213 4 -54 10 -80 20 -83 8 -3 11 -1 8 4
-3 6 -1 10 5 10 6 0 22 11 35 25 24 23 25 28 25 175 0 93 -4 160 -11 173 -7
12 -39 59 -72 105 l-61 82 -243 0 -243 0 -102 -41 c-57 -23 -108 -46 -113 -50
-15 -12 -302 182 -395 267 -18 16 -72 34 -194 64 -92 23 -191 50 -218 61 -28
11 -53 18 -55 15 -6 -5 58 -50 75 -53 8 -1 24 -10 36 -20 20 -18 50 -34 91
-48 11 -4 53 -11 94 -16 67 -8 79 -12 112 -45 20 -20 38 -31 41 -24 2 6 38
-14 83 -48 44 -33 98 -67 120 -76 22 -9 60 -36 85 -60 47 -44 98 -81 115 -82
189 -12 205 -30 71 -81 l-86 -33 -128 84 c-70 46 -165 112 -212 147 -188 139
-238 169 -284 169 -122 0 -129 4 -220 114 l-84 102 -186 87 c-102 48 -190 87
-195 87 -17 0 -184 253 -243 369 -59 116 -137 338 -139 395 l-1 31 -9 -30 c-6
-16 -11 -105 -12 -197 -2 -189 -10 -183 -27 21 -20 248 15 566 84 767 135 390
468 763 855 959 216 108 408 162 711 199 92 11 409 -3 522 -23z m878 -193
c117 -48 70 -8 540 -463 91 -88 200 -192 242 -231 68 -64 83 -85 136 -191 l60
-119 -56 -44 c-31 -23 -57 -39 -59 -34 -2 5 -31 57 -66 116 -61 105 -66 111
-367 395 -168 158 -333 315 -367 348 -58 56 -124 94 -236 134 l-27 11 32 65
c23 46 37 65 48 61 8 -2 62 -24 120 -48z m780 -133 c0 -10 -10 -15 -34 -15
-30 0 -42 -9 -88 -62 -30 -35 -66 -80 -82 -101 l-28 -38 -67 63 c-36 35 -90
85 -119 111 -28 26 -52 50 -52 52 0 3 106 5 235 5 202 0 235 -2 235 -15z m44
-240 c4 -15 -3 -44 -18 -78 -13 -30 -27 -69 -31 -87 -7 -30 -8 -31 -26 -14
-13 12 -17 24 -13 38 15 50 67 166 74 166 4 0 11 -11 14 -25z m-631 -107 c62
-62 175 -171 250 -243 l136 -130 -29 -32 -30 -33 -62 35 c-114 62 -278 86
-347 51 -16 -9 -69 -63 -118 -120 -48 -57 -91 -102 -95 -100 -4 2 -41 70 -83
150 -77 146 -77 146 -58 167 11 12 68 75 126 140 58 66 126 143 149 172 24 30
44 54 45 55 1 0 53 -51 116 -112z m264 -517 c-18 -21 -292 -332 -343 -389
l-40 -46 -28 70 c-15 38 -48 107 -72 154 l-44 85 66 66 c48 49 71 65 85 62 11
-3 18 -8 15 -11 -11 -10 43 -42 71 -42 16 0 34 -5 41 -12 9 -9 12 -9 12 0 0
10 5 10 20 2 31 -16 71 0 119 47 37 37 41 46 30 59 -9 11 1 9 34 -7 40 -20 45
-25 34 -38z m-3449 -1005 c5 -6 17 -42 27 -81 20 -82 70 -179 159 -304 104
-147 146 -194 162 -180 11 9 18 8 30 -1 8 -8 14 -9 13 -4 -1 5 -1 15 0 23 1
12 4 12 19 -1 9 -8 30 -14 45 -13 19 1 33 -5 43 -19 8 -12 18 -20 22 -20 18 4
42 -27 80 -101 l41 -80 1 42 c0 23 5 53 11 67 11 23 14 20 55 -65 29 -59 49
-89 60 -89 13 0 11 -5 -8 -20 -14 -10 -35 -43 -48 -72 -12 -29 -24 -54 -25
-56 -4 -5 -84 38 -214 115 -124 74 -131 82 -245 287 -21 38 -51 87 -66 110
-15 22 -53 88 -84 146 -57 109 -87 213 -100 355 -5 55 -4 56 4 16 5 -24 13
-48 18 -55z m481 -420 c10 -12 8 -13 -8 -9 -12 3 -18 9 -15 14 7 12 10 11 23
-5z m-304 -405 c21 -33 35 -63 34 -67 -2 -4 -33 -6 -69 -5 l-65 2 -68 -218
c-38 -120 -107 -338 -153 -485 -46 -146 -84 -272 -84 -280 0 -9 29 -20 88 -31
48 -10 93 -21 99 -25 8 -5 -5 -29 -39 -72 -27 -36 -51 -66 -53 -68 -2 -2 -76
9 -164 25 -106 18 -161 32 -161 40 0 7 11 41 25 75 36 92 158 444 286 831
l113 337 87 0 88 0 36 -59z m909 -14 c58 -14 64 -22 110 -147 29 -76 43 -101
73 -125 115 -93 146 -125 149 -157 2 -18 21 -89 44 -158 l40 -125 -6 140 c-3
77 -11 160 -16 185 -10 47 -12 99 -4 107 3 3 39 -16 80 -42 l76 -47 0 -84 c0
-46 5 -141 11 -211 l11 -128 74 -125 c80 -136 123 -198 198 -281 l48 -54 -17
40 c-76 176 -111 273 -101 282 3 3 27 -11 54 -30 27 -20 69 -45 94 -56 36 -15
46 -25 51 -50 4 -16 23 -48 43 -71 41 -45 81 -53 122 -24 13 9 24 14 25 13 1
-2 12 -24 25 -49 46 -94 92 -119 152 -85 14 8 28 14 32 15 4 0 21 -27 39 -60
17 -33 51 -78 75 -100 l43 -39 -65 -36 c-65 -36 -203 -137 -283 -207 -24 -21
-47 -38 -50 -38 -3 0 -26 18 -51 40 l-45 39 25 10 c14 5 19 10 11 10 -11 1
-10 6 3 25 15 24 15 25 -52 74 -303 221 -374 263 -559 332 -36 14 -92 91 -172
240 l-51 95 0 -73 c0 -82 11 -112 70 -182 20 -25 45 -63 54 -85 10 -22 24 -52
32 -67 14 -26 14 -28 -4 -28 -27 0 -47 20 -135 130 -41 52 -84 104 -96 114
-19 17 -21 30 -21 139 0 225 -48 457 -146 714 -20 52 -32 98 -28 105 4 7 3 9
-1 5 -8 -7 -65 103 -65 125 0 8 12 7 104 -15z m3146 -622 c101 -302 185 -555
187 -561 3 -7 -16 -14 -49 -18 -693 -89 -1392 -325 -1833 -619 -226 -151 -356
-268 -508 -457 l-28 -35 22 45 c71 145 242 357 389 483 258 221 660 422 1140
571 149 46 408 109 535 131 55 9 103 20 107 24 5 4 -7 54 -26 111 -19 58 -64
202 -101 320 -36 118 -83 269 -104 335 l-39 119 38 46 c21 25 43 56 50 68 11
23 12 23 24 5 7 -10 95 -265 196 -568z m-3269 311 c62 -155 81 -226 67 -245
-24 -31 -212 -246 -267 -306 -31 -33 -150 -166 -266 -295 -115 -129 -286 -311
-379 -405 -93 -93 -147 -146 -122 -116 26 30 59 74 73 99 23 39 24 45 11 59
-14 13 -21 5 -63 -69 -26 -46 -78 -123 -114 -173 -90 -121 -91 -123 -45 -95
161 98 452 369 752 703 81 90 138 145 145 141 7 -4 9 -4 5 1 -10 10 11 37 23
30 4 -3 4 -16 -1 -30 -7 -19 -4 -30 20 -57 16 -18 30 -36 30 -39 0 -10 43 -53
71 -71 26 -16 27 -16 51 10 13 15 48 57 77 95 29 37 55 67 57 67 2 0 4 -19 4
-43 0 -38 -8 -52 -72 -131 -232 -286 -555 -621 -728 -758 -316 -249 -616 -404
-961 -495 l-146 -39 60 100 c81 139 456 700 622 933 76 106 185 250 244 320
l106 128 3 -40 c3 -37 -24 -156 -61 -268 -9 -27 -13 -46 -10 -43 4 3 12 1 18
-4 10 -8 24 17 58 102 43 110 70 210 83 315 7 56 -12 33 291 373 168 188 317
349 321 345 3 -2 22 -47 43 -99z m-1211 91 c0 -2 -16 -48 -36 -103 -82 -230
-191 -544 -260 -749 -65 -196 -71 -221 -56 -227 14 -6 307 -58 329 -58 5 0 14
-4 22 -9 10 -7 1 -25 -39 -80 -46 -64 -55 -71 -79 -67 -69 14 -219 36 -341 51
-74 9 -136 18 -138 20 -2 2 52 138 121 302 178 427 367 890 367 902 0 9 28 15
88 19 12 1 22 1 22 -1z m4641 -207 c44 -107 109 -265 144 -350 87 -212 196
-477 240 -583 20 -49 35 -90 33 -92 -1 -1 -77 -12 -168 -24 -232 -30 -601 -88
-755 -117 -158 -31 -590 -135 -694 -168 -430 -137 -773 -307 -1004 -499 l-62
-52 33 42 c43 55 159 162 252 233 354 269 926 494 1590 625 200 39 532 95 567
95 13 0 23 2 23 4 0 2 -16 48 -36 102 -20 55 -85 243 -144 419 -60 176 -129
375 -153 443 l-45 123 50 -3 49 -3 80 -195z m-2305 122 c6 -4 11 -22 11 -41
l0 -33 -18 33 c-25 47 -23 61 7 41z m-2726 -349 c-62 -142 -144 -330 -182
-418 -38 -88 -103 -234 -143 -325 -89 -203 -92 -213 -61 -228 23 -10 266 -83
411 -123 39 -11 76 -22 83 -24 8 -3 -5 -29 -39 -77 -28 -40 -55 -77 -59 -81
-6 -7 -213 49 -613 166 -43 13 -78 26 -78 30 0 4 142 292 314 640 173 347 320
646 327 664 12 31 14 32 79 35 36 2 68 2 70 1 2 -1 -47 -118 -109 -260z m2767
229 c8 -8 13 -36 13 -68 0 -45 3 -54 18 -54 9 -1 -1 -7 -23 -15 -21 -8 -40
-13 -42 -12 -1 2 1 45 4 97 4 52 9 88 11 80 3 -8 11 -21 19 -28z m2638 -262
c72 -151 195 -403 272 -560 211 -428 244 -500 230 -506 -16 -6 -610 -180 -882
-259 -121 -35 -287 -83 -370 -108 -82 -25 -292 -84 -465 -132 -173 -48 -407
-113 -520 -145 -113 -31 -269 -74 -348 -95 l-143 -39 -42 -60 c-36 -51 -57
-69 -127 -108 -101 -57 -232 -111 -332 -136 l-73 -19 -90 24 c-88 24 -288 113
-372 166 -31 20 -51 44 -73 87 -17 33 -37 60 -44 60 -8 0 -157 43 -333 96
-175 53 -383 115 -463 139 -80 24 -199 59 -265 79 -66 20 -123 38 -127 39 -5
1 35 33 88 70 l95 68 132 -39 c73 -22 191 -58 262 -80 72 -22 275 -85 453
-139 l323 -98 22 -65 22 -65 135 -67 c74 -37 159 -73 188 -79 48 -11 60 -10
124 10 38 13 118 47 178 77 98 49 109 58 127 96 11 24 23 55 27 70 4 20 14 28
38 33 18 4 157 43 308 86 152 43 356 100 455 128 606 167 793 219 1080 305
801 237 760 223 750 259 -4 12 -32 78 -62 147 -81 182 -216 494 -283 655 -32
77 -83 195 -114 263 l-55 123 71 -3 70 -3 133 -275z m-2566 34 c39 -49 52
-160 21 -179 -12 -7 -140 64 -140 78 1 24 29 89 46 108 24 26 49 24 73 -7z
m200 -74 c17 -31 26 -64 29 -117 5 -85 5 -85 -84 -49 l-59 25 2 43 c1 24 5 53
8 65 7 29 55 85 69 80 6 -2 22 -23 35 -47z m235 -79 c26 -93 22 -132 -20 -183
-20 -23 -39 -47 -43 -51 -13 -13 -91 116 -91 150 0 45 25 120 56 166 l27 41
27 -33 c15 -18 35 -58 44 -90z m787 44 c6 -22 9 -67 6 -99 -4 -49 -11 -64 -36
-89 -17 -17 -33 -28 -37 -25 -3 4 -8 42 -11 86 -5 72 9 151 35 196 8 14 31
-23 43 -69z m-146 -10 c25 -51 35 -215 14 -231 -25 -20 -112 -45 -122 -35 -5
5 -7 54 -5 108 4 82 9 107 32 151 32 64 52 65 81 7z m-439 -21 c22 -44 29 -76
32 -140 4 -82 4 -83 -22 -95 -30 -14 -99 4 -128 33 -32 32 -19 134 28 216 35
59 56 56 90 -14z m213 32 c39 -41 61 -118 61 -211 l0 -85 -79 0 c-113 0 -111
-1 -111 86 0 82 20 153 57 202 29 38 42 40 72 8z m-889 -166 c30 -12 65 -26
77 -30 20 -8 21 -12 11 -47 -22 -82 -58 -121 -98 -108 -28 9 -61 86 -68 157
-4 50 -3 60 9 56 8 -4 39 -16 69 -28z m228 -100 c39 -12 72 -27 72 -34 0 -25
-41 -132 -60 -156 -24 -31 -46 -21 -73 32 -26 53 -41 197 -19 184 4 -2 40 -13
80 -26z m942 -64 c0 -8 -16 -28 -36 -44 -50 -41 -251 -145 -258 -133 -8 13 0
91 10 101 10 9 251 88 272 89 6 1 12 -5 12 -13z m-753 -34 c24 23 73 29 96 10
33 -28 -4 -215 -50 -254 -36 -30 -113 112 -129 237 l-7 50 35 -32 34 -33 21
22z m183 -32 c0 -5 -7 -10 -15 -10 -8 0 -15 5 -15 10 0 6 7 10 15 10 8 0 15
-4 15 -10z m148 -7 c20 -5 22 -11 22 -79 l0 -73 -82 -40 c-46 -21 -93 -42
-105 -46 -20 -5 -21 -4 -14 23 5 16 18 50 29 75 21 48 31 115 19 133 -3 6 -3
14 1 19 7 7 82 0 130 -12z m-1622 -446 c191 -127 370 -294 490 -457 47 -64
138 -219 132 -225 -2 -2 -23 21 -46 53 -107 146 -339 348 -549 478 -107 66
-393 214 -413 214 -6 0 10 25 37 54 l48 55 100 -52 c55 -29 145 -83 201 -120z
m-1877 27 c96 -13 176 -26 177 -27 2 -1 -6 -17 -17 -34 -20 -31 -20 -31 -62
-18 -23 8 -112 33 -197 56 -249 68 -238 70 99 23z m5406 18 c-6 -5 -53 -20
-105 -35 -318 -89 -781 -213 -1150 -307 -650 -167 -1003 -282 -1253 -409 -54
-28 -95 -47 -93 -42 10 15 224 160 309 209 254 145 654 290 1037 376 306 68
837 162 1080 191 128 15 169 21 180 24 2 0 0 -3 -5 -7z m-3896 -117 c357 -158
607 -327 811 -549 75 -81 73 -84 -9 -14 -79 68 -293 206 -431 277 -130 67
-251 118 -465 197 -55 20 -102 38 -104 40 -6 6 73 92 85 93 6 1 57 -19 113
-44z m-131 -186 c330 -109 591 -240 837 -423 109 -80 112 -86 25 -39 -122 66
-290 139 -452 199 -153 55 -643 204 -672 204 -9 0 -16 5 -16 10 0 6 3 10 8 10
4 0 27 20 52 45 25 24 49 44 53 45 5 0 79 -23 165 -51z"/>
<path d="M4275 6850 c4 -6 10 -10 15 -10 5 0 21 -5 35 -10 23 -9 25 -12 11
-25 -11 -11 -12 -23 -6 -44 4 -16 6 -32 2 -35 -3 -3 0 -6 6 -6 7 0 12 -6 12
-14 0 -8 9 -18 20 -21 11 -3 20 -11 20 -16 0 -5 3 -8 8 -8 21 4 24 -3 6 -16
-19 -15 -19 -16 1 -13 11 1 26 -1 33 -6 11 -7 12 -4 3 13 -16 30 -7 26 14 -5
10 -15 12 -23 4 -19 -9 6 -11 3 -6 -8 3 -10 2 -17 -4 -17 -6 0 -8 -4 -5 -9 4
-5 0 -12 -6 -14 -9 -4 -10 -8 -2 -14 6 -4 10 -21 9 -38 -1 -16 4 -41 11 -55 6
-14 11 -42 10 -62 -1 -21 2 -38 7 -38 4 0 5 -4 2 -10 -3 -5 -2 -10 4 -10 6 0
8 -7 4 -16 -4 -11 1 -22 12 -30 10 -8 16 -14 12 -14 -8 0 37 -54 70 -83 12
-11 31 -49 43 -86 l22 -66 -77 -113 -76 -112 -83 123 c-65 97 -132 188 -182
245 -5 7 65 -185 104 -283 57 -146 75 -203 68 -228 -12 -44 -18 -46 -73 -32
-28 7 -61 11 -72 8 -12 -3 -21 -1 -21 6 0 6 -6 11 -12 11 -7 0 -26 7 -42 15
-15 8 -32 13 -36 10 -5 -3 -11 -1 -15 5 -3 5 -15 10 -26 10 -10 0 -19 5 -19
10 0 6 -4 10 -10 10 -5 0 -25 16 -43 36 -31 34 -34 35 -50 20 -15 -15 -17 -15
-26 3 -7 13 -18 17 -31 14 -14 -4 -20 0 -20 11 0 15 -11 20 -37 17 -7 -1 -13
3 -13 9 0 7 -6 10 -12 7 -7 -2 -28 2 -47 9 -18 8 -37 12 -42 9 -4 -3 -13 4
-19 15 -10 19 -13 19 -33 5 -29 -20 -40 -19 -32 4 4 15 1 20 -12 19 -10 -1
-39 9 -65 21 -26 13 -52 20 -58 16 -5 -3 -10 2 -10 12 0 15 -2 16 -10 3 -7
-11 -10 -11 -10 -2 0 10 -5 10 -20 2 -15 -8 -20 -8 -20 1 0 6 -7 9 -15 5 -10
-3 -15 1 -15 12 -1 15 -2 15 -15 -2 -8 -11 -15 -16 -15 -11 0 5 -11 -2 -25
-15 l-25 -23 0 21 c0 12 -4 22 -10 22 -5 0 -10 -5 -10 -11 0 -5 -4 -7 -10 -4
-6 4 -10 -6 -10 -22 0 -22 -2 -25 -10 -13 -9 13 -10 13 -11 0 -1 -8 -1 -18 0
-22 0 -4 -3 -27 -8 -52 -5 -28 -5 -46 1 -46 5 0 7 -4 4 -8 -3 -5 1 -9 9 -9 8
0 12 4 10 8 -3 4 3 6 12 5 11 -2 19 -13 21 -29 2 -15 7 -27 11 -27 5 0 8 -11
7 -24 -1 -25 122 -194 222 -305 l47 -53 200 -55 c110 -29 285 -76 389 -103
l189 -48 59 50 58 51 0 173 0 173 131 192 130 192 -25 131 c-14 72 -28 154
-31 181 -4 28 -9 58 -12 68 -5 20 -95 134 -206 262 -38 44 -79 91 -91 105 -13
14 -21 30 -19 36 5 15 -58 70 -95 82 -19 7 -30 7 -27 2z m101 -62 c19 -23 19
-23 -2 -5 -11 9 -24 14 -29 10 -4 -5 -5 -2 -1 5 9 16 10 16 32 -10z m-957
-1100 c8 -16 18 -28 23 -28 4 0 8 -8 8 -17 0 -9 10 -28 23 -42 12 -14 -6 -1
-41 28 -75 64 -76 65 -61 90 14 21 24 15 48 -31z"/>
<path d="M5015 5932 c-75 -16 -80 -19 -83 -45 -2 -15 2 -27 8 -27 6 0 9 -4 6
-8 -4 -7 9 -11 51 -14 25 -2 6 -24 -52 -58 -131 -78 -248 -170 -234 -184 2 -2
36 6 75 18 l72 23 -20 -43 c-10 -24 -27 -76 -37 -116 -21 -81 -18 -119 18
-242 18 -62 27 -76 83 -128 73 -67 143 -104 213 -113 l50 -7 -60 37 c-82 50
-89 58 -40 51 137 -20 246 -26 310 -17 72 11 179 42 228 67 81 42 -35 -48
-163 -126 -76 -47 -81 -52 -47 -46 21 4 94 25 163 47 99 32 134 48 166 77 45
41 99 111 141 185 16 26 30 47 32 47 5 0 -28 -119 -50 -179 -8 -24 -13 -47 -9
-50 15 -16 123 171 125 216 1 24 5 19 29 -32 16 -33 44 -104 62 -157 18 -54
36 -98 40 -98 18 0 -20 252 -48 319 -8 18 -14 35 -14 37 0 2 36 22 80 44 l80
40 13 -23 c8 -12 26 -43 41 -69 14 -26 59 -91 100 -146 l74 -100 1 -122 c1
-111 17 -310 26 -319 7 -6 15 64 24 207 4 78 10 144 12 147 2 2 34 -4 72 -13
l67 -16 31 30 c17 16 42 50 55 76 23 45 24 52 13 120 -15 98 -8 153 35 289 36
113 38 116 63 111 l26 -5 -19 32 c-10 18 -31 44 -46 58 l-28 26 -52 -36 c-52
-36 -75 -54 -231 -184 -81 -68 -120 -79 -164 -48 -19 14 -21 21 -16 93 6 89
-5 224 -16 201 -4 -7 -14 -41 -21 -74 -16 -78 -53 -161 -77 -173 -10 -5 -29
-12 -43 -15 -25 -6 -25 -5 -26 61 -1 38 -10 91 -21 122 l-20 55 -7 -62 c-9
-79 -22 -119 -53 -161 -39 -52 -73 -65 -141 -53 -64 12 -208 81 -205 99 2 6
-3 9 -11 6 -8 -3 -17 0 -22 7 -4 8 -3 10 4 5 7 -4 12 -3 12 3 0 6 7 7 17 4 12
-5 14 -3 9 8 -4 8 2 3 13 -10 12 -13 27 -21 36 -18 8 4 20 1 27 -6 7 -7 22
-13 33 -14 11 -1 14 0 7 3 -6 3 -9 11 -5 17 3 5 -7 21 -23 35 -16 13 -23 21
-16 18 6 -4 12 -5 12 -2 0 12 -82 56 -92 50 -6 -4 -8 -3 -5 3 11 17 -17 22
-37 8 -12 -9 -14 -15 -6 -20 6 -4 9 -13 6 -21 -3 -8 0 -14 7 -14 7 0 4 -5 -6
-11 -9 -6 -14 -15 -11 -21 4 -7 2 -8 -5 -4 -6 4 -9 11 -6 16 3 4 -2 11 -11 14
-10 4 -13 2 -7 -7 4 -6 -5 -4 -20 6 -15 9 -39 25 -54 34 -16 10 -32 23 -36 30
-5 8 -13 10 -19 7 -6 -4 -8 -3 -4 4 10 16 -23 45 -38 33 -9 -8 -18 -6 -32 5
-10 8 -13 13 -6 9 8 -4 12 1 12 15 0 12 4 19 9 16 5 -4 8 2 7 11 -3 18 -129
108 -201 143 -59 28 -91 31 -180 12z"/>
<path d="M3267 5923 c-4 -3 -7 -24 -7 -46 0 -50 6 -45 14 11 5 43 5 47 -7 35z"/>
<path d="M6300 5565 c0 -25 2 -45 4 -45 2 0 11 -3 19 -6 18 -7 29 30 17 61 -5
12 -16 25 -24 28 -13 5 -16 -2 -16 -38z"/>
<path d="M5860 5504 c0 -8 5 -12 10 -9 6 4 8 11 5 16 -9 14 -15 11 -15 -7z"/>
<path d="M6155 5005 c-38 -63 -96 -155 -128 -205 -62 -96 -81 -141 -92 -214
-7 -45 -6 -48 49 -116 64 -78 59 -78 145 -17 34 23 34 25 32 90 -3 75 8 177
18 177 4 0 13 -27 20 -60 18 -82 61 -168 103 -208 l35 -33 32 56 32 57 -15
146 c-8 81 -18 207 -22 280 -8 149 -6 145 -89 156 l-50 7 -70 -116z"/>
<path d="M6247 4403 c-8 -45 -8 -154 0 -135 2 6 8 10 11 8 4 -2 19 20 34 49
l27 52 -33 32 -33 32 -6 -38z"/>
<path d="M5462 4210 c0 -19 2 -27 5 -17 2 9 2 25 0 35 -3 9 -5 1 -5 -18z"/>
<path d="M5386 3455 c4 -8 11 -15 16 -15 6 0 5 6 -2 15 -7 8 -14 15 -16 15 -2
0 -1 -7 2 -15z"/>
<path d="M2870 2793 c-8 -4 -78 -65 -155 -137 -77 -72 -174 -161 -215 -199
-87 -78 -86 -78 95 -20 100 32 345 145 345 159 0 3 -5 14 -10 25 -6 11 -7 19
-3 18 20 -3 33 2 31 14 -2 6 3 11 10 9 8 -1 11 2 7 7 -3 6 -12 8 -19 5 -10 -4
-13 3 -10 26 2 17 0 29 -5 26 -12 -8 -64 51 -57 63 8 12 8 12 -14 4z"/>
<path d="M2910 2771 c5 -11 15 -23 21 -27 6 -3 3 5 -6 20 -20 30 -30 35 -15 7z"/>
</g>
</svg>
